<svg fill="none" height="106" viewBox="0 0 275 106" width="275" xmlns="http://www.w3.org/2000/svg" xmlns:xlink="http://www.w3.org/1999/xlink"><clipPath id="a"><path d="m79.5 42.8799h116v20h-116z"/></clipPath><g clip-path="url(#a)"><path d="m170.73 51.2738v3.4232h-10.572v4.5018h10.942v3.6811h-14.613c.023-3.8453.023-7.6905.023-11.6061zm-78.672-8.347c.2078 0 .3232.0469.4155.2579 2.8394 6.4713 5.7019 12.9425 8.5415 19.3904.023.0703.046.1407.092.2579h-1.4542c-.7387 0-1.4543-.0235-2.193 0-.277 0-.4155-.0703-.5309-.3517-1.6852-3.9156-3.3704-7.8546-5.0556-11.7702-.5078-1.1724-1.0157-2.3681-1.5466-3.6108-.0693.1641-.1155.2579-.1847.3751-2.17 4.9942-4.3168 9.9883-6.4637 14.9824-.1154.258-.2308.3517-.5309.3517-.9788-.0187-1.9428-.0075-2.9157-.0262l-.7317-.0206.2078-.3518c2.8163-6.3774 5.6326-12.7549 8.4489-19.1324.1154-.2579.2309-.3517.531-.3517 1.1311.0234 2.2622.0234 3.3703 0zm17.129.0703c.231 0 .346.0704.461.2579 1.893 2.6495 3.786 5.2755 5.679 7.925.07.0938.139.211.254.3283.093-.1173.162-.2111.231-.3049 1.893-2.6494 3.786-5.2755 5.679-7.9249.161-.211.3-.2814.554-.2814 1.154.0235 2.331 0 3.486 0h.369v19.8359h-3.647v-14.2556c-.023-.0234-.047-.0234-.07-.0469-.069.0938-.138.1876-.207.2814-1.963 2.6495-3.925 5.2989-5.887 7.9484-.346.4689-.854.4689-1.177-.0234-1.893-2.6495-3.809-5.2755-5.702-7.925-.069-.0938-.139-.211-.231-.3048-.023.0234-.046.0234-.069.0469v14.279h-3.671v-19.8124c.093 0 .208-.0235.3-.0235zm78.395-.1172c1.131 0 2.216.2344 3.232.7268 2.331 1.102 3.74 3.4936 3.601 6.1431-.046.844-.162 1.6647-.462 2.4384-.738 1.8757-2.147 2.9543-4.016 3.4701-.139.0235-.254.0704-.439.1172.185.2111.323.3986.485.5628 1.754 1.9929 3.486 3.9859 5.24 6.0023.092.1172.162.2814.277.4689h-4.201c-.162 0-.347-.0937-.462-.211-1.755-2.0398-3.509-4.0562-5.24-6.1196-.208-.2344-.416-.3282-.716-.3282-1.016.0234-2.054 0-3.093 0v6.6354c-1.27-.0235-2.47-.0234-3.717-.0234v-10.0352h.416c2.885 0 5.771.0234 8.679.0234.508 0 1.039-.0469 1.524-.1875 1.408-.4221 2.193-1.782 2.031-3.4467-.138-1.4068-1.223-2.5322-2.654-2.6964-.24-.0375-.495-.045-.741-.0465l-9.232-.0004v-3.4701c.069 0 .162-.0234.231-.0234zm-45.107 0c1.177 0 2.331.211 3.416.7034 1.87.8675 2.84 2.3681 3.024 4.4314.185 2.0399-.577 3.5404-2.447 4.4549.047.0469.093.0703.116.0938 2.031.7268 3.07 3.0715 2.955 4.7362-.139 2.2978-1.132 3.9625-3.278 4.8065-.624.2345-1.293.4221-1.94.5159-.715.1172-1.454.1641-2.169.1641h-9.211v-11.7937h.415c3.117-.0469 6.233-.0703 9.326-.1407.439-.0234.901-.1172 1.316-.2813 1.178-.4455 1.616-1.6178 1.062-2.7667-.415-.8675-1.177-1.2896-2.077-1.4537-.301-.0469-.624-.0704-.924-.0704-2.908-.0234-5.794-.0234-8.703-.0468h-.415v-3.3295c.092 0 .161-.0234.254-.0234zm-.254 11.3013h-5.333c-.115 0-.208.0234-.323.0234v5.0645c2.101 0 4.132.0234 6.187 0 .692 0 1.339-.1876 1.962-.5158.531-.2814.923-.68 1.085-1.2661.254-.891-.069-1.7585-.877-2.3916-.785-.6096-1.709-.9144-2.701-.9144zm28.902-11.1841v3.5874h-14.613v-3.5874z" fill="#e5e1f9"/></g></svg>